<?xml version="1.0" standalone="no"?>
<!DOCTYPE svg PUBLIC "-//W3C//DTD SVG 20010904//EN"
 "http://www.w3.org/TR/2001/REC-SVG-20010904/DTD/svg10.dtd">
<svg version="1.0" xmlns="http://www.w3.org/2000/svg"
 width="1400.000000pt" height="1400.000000pt" viewBox="0 0 1400.000000 1400.000000"
 preserveAspectRatio="xMidYMid meet">
<metadata>
Created by potrace 1.11, written by Peter Selinger 2001-2013
</metadata>
<g transform="translate(0.000000,1400.000000) scale(0.100000,-0.100000)"
fill="#000000" stroke="none">
<path d="M8920 11223 c0 -5 -26 -21 -58 -38 -31 -16 -59 -32 -62 -35 -6 -6
-76 -46 -116 -67 l-32 -16 50 -96 c28 -53 71 -136 97 -186 25 -49 51 -93 56
-97 6 -4 6 -8 2 -8 -5 0 0 -12 11 -27 10 -16 34 -57 54 -93 19 -36 44 -81 55
-100 11 -19 31 -55 45 -80 14 -25 44 -75 66 -113 23 -37 42 -72 42 -77 0 -6 4
-10 9 -10 5 0 11 -8 15 -17 7 -20 56 -105 65 -113 3 -3 13 -18 21 -35 8 -16
17 -32 21 -35 3 -3 16 -23 29 -45 37 -61 158 -248 170 -262 5 -7 10 -16 10
-20 0 -4 14 -24 30 -43 16 -19 30 -38 30 -42 0 -7 48 -74 86 -121 8 -9 14 -20
14 -23 0 -6 73 -113 97 -144 12 -14 103 -137 141 -189 9 -13 23 -30 30 -37 6
-7 12 -15 12 -19 0 -5 57 -82 70 -95 3 -3 16 -18 28 -34 l23 -29 -38 -14 c-21
-7 -50 -15 -65 -18 -15 -3 -63 -16 -105 -29 -43 -13 -127 -38 -188 -56 -60
-18 -145 -44 -188 -57 -43 -14 -86 -26 -95 -28 -9 -2 -18 -4 -19 -5 -2 -2 -6
-3 -10 -5 -5 -1 -15 -4 -23 -8 -8 -3 -94 -31 -190 -62 -96 -30 -184 -60 -195
-64 -51 -23 -105 -40 -105 -35 0 4 -6 2 -12 -3 -7 -5 -35 -18 -63 -27 -27 -10
-64 -24 -82 -32 -17 -8 -34 -14 -37 -14 -8 0 -247 -95 -293 -115 -17 -8 -34
-15 -37 -15 -7 0 -48 -18 -184 -81 -46 -22 -86 -39 -88 -39 -3 0 -58 -27 -124
-59 -66 -33 -120 -57 -120 -53 0 4 -4 3 -8 -3 -4 -5 -56 -35 -117 -65 -60 -30
-112 -57 -115 -60 -3 -3 -21 -13 -40 -22 -103 -50 -204 -117 -260 -169 -16
-16 -19 -15 -41 5 -13 11 -40 34 -59 50 -19 16 -64 55 -100 87 -36 32 -74 66
-86 76 -83 71 -161 142 -183 165 -28 29 -29 30 -81 98 -19 25 -39 48 -45 52
-5 4 -7 8 -3 8 3 0 -6 13 -21 29 -15 16 -38 43 -52 61 -25 33 -80 98 -114 136
-11 12 -49 55 -85 95 -125 139 -398 403 -463 448 -12 8 -26 20 -32 27 -5 6
-28 24 -50 40 -22 16 -48 36 -57 44 -25 22 -323 211 -358 227 -8 4 -19 11 -25
15 -5 5 -120 76 -255 158 -135 82 -250 154 -257 159 -7 6 -15 11 -18 11 -3 0
-41 23 -84 50 -43 28 -83 50 -89 50 -7 0 -12 5 -12 10 0 6 -7 10 -15 10 -8 0
-15 5 -15 10 0 6 -5 10 -11 10 -6 0 -24 9 -40 21 -54 38 -30 4 71 -101 56 -58
141 -148 190 -201 49 -53 111 -119 137 -146 45 -47 263 -278 363 -383 25 -26
80 -85 124 -131 234 -249 598 -607 901 -884 130 -118 185 -176 185 -192 0 -6
3 -13 8 -15 8 -3 72 -84 72 -91 0 -2 33 -53 73 -113 106 -158 217 -347 316
-539 55 -105 171 -360 171 -374 0 -6 9 -26 20 -46 11 -19 17 -35 14 -35 -2 0
0 -10 7 -21 25 -47 109 -339 112 -391 1 -16 4 -28 7 -28 3 0 6 -8 7 -17 5 -55
12 -112 18 -143 8 -40 9 -285 2 -297 -3 -5 -8 -29 -12 -53 -3 -25 -11 -63 -17
-85 -6 -22 -11 -44 -13 -50 -2 -10 -9 -31 -25 -70 -4 -11 -17 -41 -29 -68
l-23 -47 -66 60 c-37 33 -72 60 -79 60 -7 0 -13 4 -13 8 0 8 -193 125 -204
124 -3 -1 -39 14 -80 33 -41 19 -117 48 -168 65 -51 17 -102 35 -113 40 -16 7
-60 18 -137 36 -5 1 -9 2 -10 4 -6 4 -75 19 -118 26 -19 3 -44 8 -55 11 -11 4
-27 8 -35 9 -8 2 -28 5 -45 8 -16 3 -48 8 -70 11 -22 4 -51 8 -65 11 -14 2
-43 7 -65 10 -22 2 -51 7 -64 10 -13 3 -51 7 -85 10 -34 3 -77 7 -96 10 -42 6
-76 9 -195 18 -49 4 -116 9 -148 11 -142 11 -386 17 -687 17 -330 1 -567 -6
-1005 -27 l-100 -5 45 22 c25 12 47 25 50 28 3 4 32 21 65 40 33 19 62 37 65
40 3 4 15 13 28 19 23 12 39 24 88 66 13 11 47 40 76 65 56 47 158 162 158
178 0 5 6 15 14 21 24 20 109 214 99 225 -3 2 -1 11 3 18 10 15 12 35 16 146
2 46 0 86 -4 88 -5 3 -6 9 -3 13 16 26 -58 222 -116 308 -32 48 -182 203 -195
203 -4 0 -23 12 -43 27 -20 16 -38 28 -41 28 -3 0 -16 8 -30 17 -42 28 -234
113 -280 124 -8 2 -36 10 -63 18 -26 8 -51 16 -55 17 -4 1 -11 3 -17 4 -48 14
-152 36 -191 40 -26 4 -50 8 -54 10 -15 9 -153 24 -365 40 -168 13 -571 7
-700 -11 -16 -2 -59 -6 -95 -9 -36 -3 -76 -7 -90 -10 -14 -3 -45 -8 -70 -11
-58 -8 -284 -59 -358 -81 -31 -9 -61 -18 -67 -19 -17 -3 -218 -71 -250 -85
-16 -7 -32 -13 -35 -14 -3 -1 -18 -8 -35 -15 -16 -7 -34 -14 -40 -15 -31 -7
-212 -104 -305 -163 -125 -79 -287 -224 -355 -317 -16 -22 -35 -46 -42 -53 -7
-7 -13 -17 -13 -22 0 -5 -6 -15 -13 -22 -18 -18 -107 -201 -107 -220 0 -8 -3
-18 -7 -22 -4 -3 -8 -12 -9 -19 -2 -7 -5 -21 -8 -32 -33 -139 -39 -187 -40
-320 -1 -156 22 -302 75 -480 26 -89 108 -304 126 -330 7 -11 13 -27 13 -36 0
-10 3 -19 8 -21 4 -1 27 -41 50 -88 47 -94 70 -135 95 -174 10 -14 15 -26 12
-26 -3 0 5 -12 18 -26 12 -14 21 -27 20 -30 -4 -6 193 -302 239 -359 5 -5 32
-41 60 -80 28 -38 54 -72 58 -75 3 -3 17 -21 30 -40 13 -19 27 -37 30 -40 3
-3 33 -39 66 -80 32 -41 76 -94 98 -117 21 -23 46 -52 54 -65 9 -12 23 -29 31
-38 9 -9 45 -49 81 -90 136 -153 378 -406 570 -595 84 -82 184 -183 224 -224
179 -186 282 -282 405 -377 38 -30 74 -54 79 -54 5 0 16 10 25 23 8 12 23 31
34 42 10 11 36 43 58 70 22 28 43 52 46 55 3 3 13 16 21 29 19 26 18 27 -108
140 -140 124 -248 225 -329 306 -86 86 -120 125 -200 225 -20 25 -42 52 -48
60 -34 42 -124 160 -142 184 -11 16 -37 50 -57 76 -21 26 -38 52 -38 58 0 6
-4 12 -8 14 -16 7 -312 440 -312 457 0 5 -4 11 -8 13 -10 4 -72 96 -72 108 0
4 -3 10 -7 12 -8 3 -124 174 -132 193 -2 6 -26 43 -53 83 -26 41 -48 78 -48
83 0 5 -4 9 -10 9 -5 0 -10 4 -10 9 0 5 -28 52 -62 105 -149 226 -180 278
-174 283 3 4 45 7 94 9 48 1 161 5 252 8 193 8 362 14 550 21 74 3 198 7 275
10 77 3 192 7 255 10 105 3 152 6 320 20 86 7 177 14 275 21 50 3 110 7 135 9
25 2 86 7 135 10 50 4 106 8 125 10 19 2 91 7 160 11 513 28 734 35 1135 35
187 0 340 0 340 -1 0 -2 88 -6 260 -13 50 -2 96 -7 103 -11 7 -4 12 -2 12 4 0
6 5 8 12 4 7 -5 31 -9 53 -10 54 -2 206 -17 290 -28 22 -3 64 -8 93 -12 29 -3
63 -8 75 -10 12 -3 40 -8 62 -10 22 -3 51 -8 65 -11 40 -10 53 -13 90 -19 19
-3 44 -7 55 -9 11 -3 28 -6 37 -8 10 -2 20 -6 24 -9 3 -4 12 -4 20 -1 8 3 14
0 14 -7 0 -6 4 -9 8 -6 4 2 39 -4 77 -15 39 -11 77 -22 85 -24 8 -2 47 -15 85
-28 212 -75 359 -156 470 -261 l57 -53 -47 -44 c-26 -24 -53 -49 -59 -54 -26
-24 -133 -103 -156 -115 -14 -7 -29 -19 -33 -26 -4 -8 -11 -14 -16 -14 -4 0
-56 -27 -115 -60 -59 -33 -110 -60 -113 -60 -4 0 -29 -11 -57 -24 -29 -14 -58
-26 -66 -28 -8 -2 -17 -6 -20 -9 -3 -3 -34 -16 -70 -29 -36 -13 -71 -28 -77
-33 -7 -5 -13 -7 -13 -3 0 3 -17 -1 -37 -9 -41 -16 -290 -92 -326 -99 -12 -3
-67 -16 -122 -30 -55 -14 -111 -27 -125 -30 -14 -3 -61 -12 -105 -21 -44 -10
-89 -19 -100 -20 -11 -2 -29 -6 -40 -8 -11 -3 -42 -8 -69 -11 -27 -4 -52 -9
-55 -10 -3 -2 -26 -7 -51 -10 -25 -3 -55 -8 -66 -10 -73 -15 -103 -19 -136
-20 -21 0 -38 -4 -38 -8 0 -3 -8 -5 -17 -3 -10 1 -22 0 -27 -3 -5 -3 -25 -6
-45 -8 -20 -2 -49 -5 -66 -8 -76 -10 -202 -27 -225 -31 -25 -4 -72 -9 -165
-20 -27 -3 -63 -8 -80 -10 -88 -12 -269 -33 -334 -40 -24 -2 -61 -7 -81 -10
-78 -12 -136 -18 -177 -19 -24 -1 -43 -4 -43 -7 0 -3 -6 -6 -12 -6 -25 -1
-133 -12 -133 -13 0 -3 -44 -9 -104 -15 -35 -3 -67 -7 -70 -10 -4 -2 -27 -6
-51 -10 -25 -3 -58 -8 -75 -11 -29 -5 -42 -7 -115 -18 -50 -8 -131 -23 -160
-30 -14 -4 -40 -9 -59 -12 -18 -3 -41 -7 -50 -10 -9 -2 -45 -10 -81 -19 -36
-8 -87 -22 -115 -30 -27 -9 -57 -18 -65 -20 -25 -5 -164 -55 -180 -64 -9 -5
-30 -12 -48 -16 -35 -7 -35 -7 -32 -100 3 -85 5 -109 11 -120 3 -5 12 -30 19
-55 13 -45 25 -64 38 -66 4 0 37 -15 75 -32 37 -18 72 -32 77 -32 6 0 10 -4
10 -8 0 -5 6 -9 13 -9 6 0 53 -14 102 -30 50 -17 115 -36 145 -43 30 -7 62
-15 70 -18 8 -3 22 -6 30 -8 22 -4 83 -17 95 -19 21 -5 262 -44 300 -49 152
-20 312 -35 420 -41 39 -2 70 -4 70 -5 0 -11 731 -16 935 -7 63 3 115 6 115 7
0 1 38 3 85 5 47 2 112 6 145 10 55 6 94 10 200 20 22 2 56 6 75 9 19 3 53 8
75 10 90 10 143 17 190 26 28 5 66 12 85 14 19 3 49 8 65 11 17 4 38 7 48 8 9
1 17 5 17 10 0 4 4 6 10 2 5 -3 39 1 75 10 36 8 79 17 97 20 17 3 35 8 40 11
5 3 21 7 36 9 39 5 323 89 417 123 107 39 235 95 313 137 34 19 62 31 62 27 0
-4 4 -2 8 4 4 5 25 21 47 34 22 13 46 30 53 37 7 7 18 13 24 13 6 0 18 8 27
18 9 9 32 29 51 43 20 15 58 49 85 76 126 125 177 213 255 433 12 34 42 149
46 180 14 99 17 134 16 200 0 73 -6 144 -16 185 -14 62 -20 81 -29 93 -5 6 -7
12 -3 12 3 0 1 12 -5 27 -5 14 -6 29 -2 32 8 6 23 31 60 101 10 19 22 38 26
41 5 3 9 12 11 20 1 8 10 32 20 54 98 220 135 473 112 755 -6 77 -7 85 -32
210 -8 41 -17 86 -20 100 -3 14 -10 43 -16 65 -7 22 -12 43 -14 48 -1 4 -3 9
-4 12 -1 3 -3 8 -4 13 -2 4 -8 27 -16 52 -7 25 -15 51 -16 58 -1 8 -9 28 -18
46 -8 17 -17 43 -19 57 -3 15 -10 36 -16 48 -6 11 -16 30 -22 42 -6 12 -8 23
-6 26 5 5 32 -22 80 -80 26 -31 206 -213 250 -252 38 -34 158 -135 191 -160
21 -16 44 -35 50 -40 6 -6 42 -33 80 -60 38 -28 92 -67 120 -87 81 -59 485
-329 491 -328 3 0 15 -9 27 -20 12 -11 34 -26 50 -32 15 -7 28 -16 28 -20 0
-5 7 -8 15 -8 8 0 15 -4 15 -8 0 -5 12 -15 28 -22 37 -19 146 -93 150 -102 2
-5 10 -8 18 -8 8 0 14 -4 14 -10 0 -5 7 -10 15 -10 8 0 15 -3 15 -8 0 -4 13
-13 28 -20 16 -6 37 -20 48 -30 11 -9 46 -35 79 -57 33 -22 62 -42 65 -46 10
-12 110 -79 119 -79 5 0 15 10 24 23 8 12 24 33 36 47 39 44 55 64 91 110 19
25 39 48 44 52 5 3 -28 42 -74 85 -47 43 -99 93 -117 111 -18 18 -33 31 -33
28 0 -2 -27 22 -60 54 -33 32 -60 56 -60 55 0 -2 -15 11 -33 28 -41 39 -90 83
-187 167 -41 36 -77 67 -80 70 -8 8 -143 125 -168 146 -13 10 -38 32 -55 47
-18 16 -54 48 -81 70 -27 23 -54 47 -60 52 -50 45 -99 86 -141 120 -27 22 -64
55 -83 73 -18 17 -37 32 -41 32 -3 0 -14 8 -22 18 -9 9 -36 33 -59 52 -46 37
-122 102 -130 110 -3 3 -30 25 -60 50 -30 25 -60 49 -66 55 -6 5 -35 30 -64
55 -30 25 -65 55 -79 67 -14 13 -30 26 -36 31 -96 78 -299 250 -354 301 -24
22 -48 42 -55 45 -7 3 -3 11 9 20 11 8 25 19 30 23 6 5 35 21 65 37 30 16 57
31 60 35 3 3 59 33 125 66 66 33 123 64 126 68 3 5 8 8 10 6 2 -1 66 28 141
64 75 37 139 67 142 67 3 0 43 18 90 40 47 22 87 40 89 40 3 0 22 8 43 17 22
9 41 17 44 18 3 1 16 6 30 12 14 6 57 23 95 38 39 15 79 31 90 36 18 8 73 30
85 34 6 2 30 11 110 42 36 14 72 27 80 29 8 1 94 30 190 63 205 70 487 161
513 166 10 2 27 7 37 10 10 3 27 8 37 10 10 3 79 23 153 45 74 23 186 54 248
71 62 16 119 32 126 35 15 6 26 -4 77 -66 18 -23 41 -50 50 -59 8 -9 37 -43
65 -76 27 -33 58 -69 69 -81 11 -11 54 -58 95 -104 41 -45 102 -112 135 -148
96 -105 411 -418 539 -537 147 -136 128 -119 211 -190 39 -33 79 -69 90 -80
11 -11 56 -49 100 -85 44 -35 82 -67 85 -70 4 -5 68 -55 105 -82 6 -4 30 -26
55 -48 25 -22 48 -40 52 -40 4 0 13 -6 20 -14 17 -17 302 -227 383 -282 33
-23 91 -62 129 -88 116 -79 434 -276 445 -276 6 0 11 -3 11 -8 0 -4 13 -13 29
-20 15 -7 48 -25 72 -41 83 -53 149 -91 159 -91 6 0 10 -4 10 -10 0 -5 5 -10
10 -10 6 0 27 -11 48 -24 41 -26 248 -149 300 -178 35 -20 35 -14 -4 39 -13
17 -24 36 -24 42 0 6 -4 11 -10 11 -5 0 -10 7 -10 15 0 8 -4 15 -9 15 -5 0
-13 9 -16 20 -3 11 -12 26 -18 32 -7 7 -28 38 -47 68 -19 30 -38 57 -42 58 -5
2 -8 9 -8 15 0 7 -9 23 -20 37 -11 14 -48 68 -82 120 -34 52 -65 97 -70 98 -4
2 -8 9 -8 16 0 7 -5 17 -12 24 -15 15 -18 31 -24 127 -8 132 -25 243 -38 248
-7 3 -53 -5 -101 -18 -49 -13 -92 -22 -96 -19 -4 2 -10 0 -13 -5 -3 -5 -26
-12 -51 -15 -49 -8 -47 -3 -31 -83 3 -13 0 -23 -6 -23 -13 0 -342 219 -346
231 -2 5 -10 9 -18 9 -8 0 -14 4 -14 8 0 5 -18 18 -40 31 -22 12 -40 26 -40
32 0 5 -5 9 -11 9 -6 0 -23 10 -38 23 -15 12 -40 31 -55 42 -35 25 -129 98
-136 105 -3 3 -23 18 -45 35 -22 16 -44 34 -50 41 -5 6 -32 29 -60 49 -27 21
-52 40 -55 44 -3 3 -21 18 -40 33 -19 14 -44 34 -55 44 -11 11 -54 48 -95 84
-169 147 -166 144 -324 293 -179 170 -431 427 -551 562 -38 43 -87 97 -109
119 -21 23 -50 56 -64 74 -13 18 -40 49 -58 69 -38 41 -35 49 15 58 19 3 37 8
41 10 3 2 17 6 31 9 13 2 71 16 129 31 58 15 112 28 120 30 8 2 65 15 125 30
61 15 120 28 132 31 44 9 73 24 68 36 -5 17 -16 84 -20 123 -1 17 -6 46 -11
65 -11 49 -11 54 -2 66 10 14 -4 26 -66 59 -53 28 -318 196 -326 206 -3 3 -19
13 -37 22 -17 9 -37 22 -45 29 -7 7 -36 28 -63 47 -165 113 -195 135 -195 142
0 5 -4 9 -10 9 -8 0 -123 83 -190 137 -150 120 -297 239 -306 248 -6 5 -31 26
-55 47 -184 152 -543 500 -664 642 -56 66 -89 104 -109 126 -34 39 -168 224
-215 298 -51 78 -61 91 -61 75z m866 -1410 c22 -17 49 -39 61 -50 114 -97 414
-330 518 -403 20 -14 42 -30 48 -36 14 -12 161 -115 185 -129 9 -5 19 -12 22
-15 3 -3 41 -29 84 -57 46 -30 73 -54 65 -57 -30 -8 -103 -28 -118 -31 -9 -2
-54 -13 -101 -25 -180 -46 -182 -46 -199 -20 -9 13 -26 34 -38 47 -13 12 -23
25 -23 28 0 4 -6 12 -12 19 -7 7 -23 26 -35 42 -12 16 -37 49 -55 73 -35 47
-59 79 -155 211 -34 47 -66 90 -70 95 -5 6 -37 53 -73 105 -35 52 -68 97 -72
98 -4 2 -8 9 -8 15 0 7 -12 27 -28 44 -15 18 -38 52 -51 75 -20 37 -21 40 -4
23 11 -11 38 -34 59 -52z m-7051 -2397 c171 -8 231 -14 335 -31 14 -2 41 -7
60 -10 19 -3 49 -8 65 -12 17 -3 39 -7 50 -9 11 -1 20 -3 20 -4 0 -2 17 -6 60
-14 58 -11 231 -73 300 -109 70 -35 163 -101 198 -141 10 -12 27 -32 39 -45
32 -38 70 -132 72 -178 0 -24 4 -43 7 -43 20 0 -21 -168 -52 -211 -10 -15 -19
-31 -19 -36 0 -13 -118 -133 -162 -166 -20 -15 -42 -33 -50 -40 -12 -13 -62
-44 -146 -94 -53 -31 -206 -106 -282 -138 -36 -15 -74 -31 -85 -36 -34 -15
-134 -50 -142 -51 -5 0 -16 -4 -26 -9 -14 -8 -176 -61 -222 -73 -5 -2 -17 -6
-25 -9 -15 -6 -160 -46 -190 -52 -8 -2 -16 -4 -17 -4 -2 -1 -4 -1 -5 0 -2 0
-15 -4 -31 -10 -15 -6 -38 -13 -50 -15 -12 -2 -42 -9 -67 -16 -25 -7 -52 -14
-60 -16 -17 -4 -205 -52 -235 -60 -11 -3 -33 -8 -50 -11 -16 -3 -38 -9 -47
-14 -9 -5 -28 -9 -42 -9 -14 0 -28 -5 -31 -10 -4 -6 -11 -8 -16 -4 -5 3 -16 0
-24 -6 -8 -7 -15 -10 -15 -7 0 3 -24 -1 -52 -9 -29 -8 -61 -17 -71 -19 -45
-10 -464 -118 -587 -150 -211 -57 -186 -61 -254 42 -98 148 -259 378 -270 385
-16 11 -19 10 -48 -17 -15 -14 -29 -21 -32 -16 -19 29 -45 194 -49 307 -6 128
33 322 79 391 8 13 12 23 10 23 -7 0 60 100 96 144 65 78 123 130 218 197 74
53 242 147 277 155 13 4 26 10 29 15 3 5 14 9 25 9 10 0 19 4 19 8 0 5 6 9 13
10 6 0 82 25 168 54 153 52 168 57 199 63 8 2 51 12 95 24 80 20 103 25 180
36 23 3 52 8 65 10 14 3 48 7 75 10 28 3 68 7 90 10 22 2 101 7 175 10 74 3
135 7 136 8 4 3 146 0 299 -7z m4469 -2689 c-9 -109 -38 -244 -72 -327 -5 -14
-10 -28 -11 -33 -1 -11 -51 -107 -64 -125 -7 -8 -46 -49 -88 -91 -71 -71 -243
-191 -274 -191 -7 0 -15 -4 -17 -8 -5 -13 -229 -105 -343 -142 -85 -28 -271
-80 -340 -95 -11 -3 -33 -8 -50 -12 -16 -4 -34 -7 -40 -8 -5 0 -35 -6 -65 -13
-77 -16 -111 -23 -140 -26 -14 -2 -38 -6 -55 -9 -16 -4 -48 -9 -70 -12 -23 -3
-50 -7 -62 -9 -33 -7 -104 -17 -153 -21 -25 -3 -62 -7 -84 -10 -21 -2 -66 -7
-100 -10 -34 -2 -82 -7 -106 -10 -25 -3 -92 -7 -150 -10 -58 -2 -146 -7 -196
-11 -196 -12 -763 -6 -939 11 -22 2 -78 6 -125 9 -47 3 -103 8 -125 11 -22 3
-58 8 -80 10 -22 2 -56 7 -75 10 -19 2 -53 7 -75 10 -22 3 -49 7 -60 9 -33 6
-109 19 -130 22 -11 1 -20 3 -20 4 0 2 -18 6 -62 14 -17 3 -55 12 -85 20 -59
15 -63 13 62 41 36 8 83 17 104 21 21 3 48 8 60 10 11 2 41 7 66 10 25 3 54 8
65 10 11 3 36 7 55 9 19 3 44 8 56 10 11 3 43 7 70 11 27 3 60 8 74 9 62 9
147 18 163 19 9 0 17 3 17 6 0 3 12 5 28 5 28 1 151 14 180 20 10 2 47 6 83 9
36 4 76 9 90 11 35 6 117 16 169 20 25 2 54 6 65 8 11 3 54 8 95 12 41 4 84 9
95 11 20 4 78 12 139 19 34 3 122 16 146 20 8 1 38 6 65 9 28 4 64 9 80 11 53
7 140 22 140 25 0 0 20 3 45 5 25 3 56 7 70 10 14 3 40 8 59 11 18 3 42 7 51
9 10 2 40 7 67 11 53 9 62 11 66 13 1 1 16 4 32 6 29 4 155 30 200 42 11 2 29
6 40 8 11 2 58 14 105 25 47 12 93 23 103 25 9 2 21 6 25 9 5 3 20 7 35 10 36
6 189 53 267 81 36 13 79 27 95 31 17 4 35 10 40 14 6 4 48 22 95 40 100 40
344 159 348 172 2 4 9 8 15 8 6 0 56 30 111 68 98 65 115 78 179 134 35 30 46
23 41 -25z"/>
</g>
</svg>
