<svg width="300" height="300" xmlns="http://www.w3.org/2000/svg" preserveAspectRatio="xMidYMid">
 <defs>
  <style>.cls-1 {
        fill: #fff;
      }

      .cls-1, .cls-2 {
        fill-rule: evenodd;
      }

      .cls-2 {
        fill: #de4f4f;
      }</style>
 </defs>
 <g>
  <title>background</title>
  <rect fill="none" id="canvas_background" height="302" width="302" y="-1" x="-1"/>
 </g>
 <g>
  <title>Layer 1</title>
  <rect stroke="null" id="svg_3" height="358.999994" width="432.99998" y="-29.499994" x="-32.49998" fill-opacity="null" stroke-opacity="null" stroke-width="null" fill="null"/>
  <path id="svg_1" class="cls-1" d="m262,166.575496l-8.533,0l-7.2,-10.694l-5.6,0l0,10.694l-7.467,0l0,-33.152l18.133,0c0,0 9.771,0.384 9.771,11.185c0,7.651 -7.104,10.471 -7.104,10.471l8,11.496zm-12.608,-27.048l-8.856,0l0,9.692l9.661,0c0,0 3.693,-0.001 3.693,-4.847c0,-5.03 -4.498,-4.845 -4.498,-4.845zm-98.859,-6.104l25.067,0l0,6.412l-17.6,0l0,6.956l15.2,0l0,6.417l-15.2,0l0,6.951l17.6,0l0,6.416l-25.067,0l0,-33.152zm-18.933,33.152l-7.467,0l0,-26.735l-9.866,0l0,-6.417l27.2,0l0,6.417l-9.867,0l0,26.735zm-51.467,-33.152l25.067,0l0,6.412l-17.6,0l0,6.956l15.2,0l0,6.417l-15.2,0l0,6.951l17.6,0l0,6.416l-25.067,0l0,-33.152zm-16.533,12.298l-9.072,13.368l-9.066,-13.368l0,20.855l-7.462,0l0,-33.153l7.462,0l9.066,13.635l9.072,-13.635l7.467,0l0,33.153l-7.467,0l0,-20.855z"/>
  <path id="svg_2" class="cls-2" d="m229.326,149.696c-0.854,0.924 -1.97,0.132 -1.97,0.132l-24.952,-27.047l27.119,25.068c0,0 0.657,0.924 -0.197,1.847zm-2.79,-8.764l-11.309,-12.296l12.381,11.368c0,0 0.325,0.433 -0.098,0.866c-0.422,0.432 -0.974,0.062 -0.974,0.062zm1.849,16.313c-1.222,1.323 -2.819,0.19 -2.819,0.19l-35.716,-38.714l38.817,35.881c0,0 0.94,1.322 -0.282,2.643zm-3.665,6.516c-1.222,1.322 -2.82,0.189 -2.82,0.189l-46.9,-49.95l50.002,47.117c0,0 0.939,1.322 -0.282,2.644zm-6.767,3.588c-1.222,1.322 -2.82,0.189 -2.82,0.189l-35.715,-38.714l38.817,35.881c0,0 0.939,1.322 -0.282,2.644zm-8.176,0.099c-0.854,0.923 -1.97,0.132 -1.97,0.132l-24.952,-27.047l27.119,25.068c0,0 0.656,0.924 -0.197,1.847zm-8.395,-2.217c-0.422,0.433 -0.974,0.062 -0.974,0.062l-11.309,-12.296l12.381,11.368c0,0 0.324,0.433 -0.098,0.866z"/>
 </g>
</svg>