<?xml version="1.0" encoding="utf-8"?>
<!-- Generator: Adobe Illustrator 16.0.3, SVG Export Plug-In . SVG Version: 6.00 Build 0)  -->
<!DOCTYPE svg PUBLIC "-//W3C//DTD SVG 1.1//EN" "http://www.w3.org/Graphics/SVG/1.1/DTD/svg11.dtd">
<svg version="1.1" xmlns="http://www.w3.org/2000/svg" xmlns:xlink="http://www.w3.org/1999/xlink" x="0px" y="0px"
	 width="174.576px" height="109.322px" viewBox="0 0 174.576 109.322" enable-background="new 0 0 174.576 109.322"
	 xml:space="preserve">
<g id="Layer_1">
</g>
<g id="Layer_2">
	<path fill="none" stroke="#231F20" stroke-width="4" stroke-miterlimit="10" d="M5.975,68.435
		c6.949,9.174,17.328,29.374,27.74,36.608c-15.855-14.098-50.8-48.08-12.058-56.796c7.026-1.581,27.459-2.23,29.384,7.479
		c1.868,9.423-15.59,13.673-22.038,15.292c7.125,0.149,73.47-9.45,61.354,17.835c-5.473,12.324-47.797,13.139-58.827,7.36
		c-0.176-0.355-0.246-0.727-0.21-1.114c15.32-6.146,59.834-1.438,62.655-24.765c1.601-13.234-14.721-36.275-25.792-42.638
		c15.59,16.917,34.838,30.644,51.046,45.921c-8.048-6.116-18.972-11.142-25.085-19.518c-4.871-6.672-5.053-6.406,3.195-10.619
		c12.813-6.544,29.374-10.814,43.063-14.049c-0.163-0.041-1.026,0.145-0.917,0.08c-9.418-5.386-24.23-16.899-29.797-26.506
		c11.983,23.964,30.297,46.158,53.605,59.565c-1.749-2.227-0.624-3.636-1.388-6.001"/>
</g>
</svg>
